<?xml version="1.0" encoding="utf-8"?>
<!-- Generator: Adobe Illustrator 27.5.0, SVG Export Plug-In . SVG Version: 6.00 Build 0)  -->
<svg version="1.1" id="Layer_1" xmlns="http://www.w3.org/2000/svg" xmlns:xlink="http://www.w3.org/1999/xlink" x="0px" y="0px"
	 viewBox="0 0 506 509" style="enable-background:new 0 0 506 509;" xml:space="preserve">
<style type="text/css">
	.st0{fill:#FBB040;}
</style>
<g>
	<path class="st0" d="M289,462c-28.33,0-56.67,0-85,0c0-60,0-120,0-180c-21.33,0-42.67,0-64,0c0.33-25.33,0.67-50.67,1-76
		c21.33,0.33,42.67,0.67,64,1c0-10.33,0-20.67,0-31c-2.23-23.06,0.41-41.27,3-53c3.76-17.04,8.57-25.55,10-28
		c1.63-2.78,8.79-14.62,23-25c19.64-14.35,40.04-16.65,52-18c12.12-1.37,21.7-0.71,32,0c14.42,0.99,26.39,3.12,35,5
		c0,21.67,0,43.33,0,65c-13.65-0.65-24.92,0.11-33,1c-14.3,1.58-21.44,2.51-26,6c-7.62,5.83-9.74,15.35-11,21
		c-0.7,3.15-0.8,8.1-1,18c-0.15,7.47-0.05,11.88,0,22c0.03,7.42,0.02,13.39,0,17c22.67,0,45.33,0,68,0c-3.67,24-7.33,48-11,72
		c-19,0-38,0-57,0C289,340,289,401,289,462z"/>
</g>
</svg>
