<?xml version="1.0" encoding="UTF-8"?>
<svg id="Layer_1" data-name="Layer 1" xmlns="http://www.w3.org/2000/svg" viewBox="0 0 346.64 282.81">
  <defs>
    <style>
      .cls-1, .cls-2, .cls-3, .cls-4, .cls-5, .cls-6, .cls-7 {
        stroke-miterlimit: 10;
      }

      .cls-1, .cls-2, .cls-4, .cls-6 {
        stroke-width: 5px;
      }

      .cls-1, .cls-6, .cls-7 {
        stroke: #864721;
      }

      .cls-1, .cls-8 {
        fill: #fbb040;
      }

      .cls-2, .cls-9 {
        fill: #f49dc3;
        stroke: #f49dc3;
      }

      .cls-9 {
        stroke-miterlimit: 10;
        stroke-width: 5px;
      }

      .cls-3 {
        stroke-width: 6px;
      }

      .cls-3, .cls-4, .cls-8 {
        stroke: #f5f2aa;
      }

      .cls-3, .cls-5 {
        fill: none;
      }

      .cls-4 {
        fill: #f5f2aa;
      }

      .cls-5 {
        stroke: #fff;
      }

      .cls-6, .cls-7 {
        fill: #864721;
      }

      .cls-8 {
        stroke-miterlimit: 10;
        stroke-width: 5px;
      }
    </style>
  </defs>
  <g>
    <circle class="cls-8" cx="74.1" cy="74.1" r="71.59"/>
    <path class="cls-4" d="m4.53,68.16c2.61,2.37,6.57,5.44,11.93,7.95,5.02,2.35,11.94,5.34,19.89,3.98,2.44-.42,6.99-1.63,11.93-5.97,10.12-8.88,17.89-9.62,23.86-9.94,6.02-.32,11.57,1.3,13.92,1.99,3.54,1.03,5.19,1.96,9.94,3.98,8.21,3.49,12.39,5.71,15.91,5.97,12.88.94,28.36-6.38,29.83-15.91.44-2.84-1.7-7.2-5.97-15.91-3.24-6.62-4.86-9.93-7.95-13.92-5.47-7.07-11.43-11-15.91-13.92-3.72-2.42-9.04-5.43-15.91-7.95-3.09-.53-7.4-1.16-12.57-1.61-6.69-.57-12.88-1.27-19.24-.38-12.42,1.74-21.03,6.95-25.85,9.94-11.41,7.08-17.98,15.39-19.89,17.9-9.97,13.13-12.91,26.61-13.92,33.8Z"/>
  </g>
  <g>
    <circle class="cls-9" cx="272.54" cy="74.09" r="71.59" transform="translate(27.43 214.42) rotate(-45)"/>
    <path class="cls-2" d="m224.02,122.12c-1.3,2.04,5.88,9.75,13.3,14.33,4.52,2.79,9.1,4.4,11.72,5.31,2.2.76,5.77,1.96,10.65,2.8,16.11,2.76,25.99.12,34.22,6.01.41.3,1.02.7,1.71,1.38,4.39,4.35,5.26,10.77,5.97,15.91.19,1.36.75,5.97,0,11.93-1.04,8.27-3.51,10.31-1.99,13.92,1.46,3.47,5.63,6.08,9.94,5.97.32-.01,6.2-.24,7.95-3.98,1.81-3.87-2.78-7.3-5.97-17.9-.72-2.4-1.67-5.64-1.99-9.94-.24-3.29-.52-10.32,3.98-21.88,4.49-11.52,7.55-11.86,15.91-27.84,3.18-6.09,5.69-10.88,7.95-17.9,3.42-10.58,3.77-18.31,3.98-23.86.18-4.85.33-8.78-.65-9.01-1.97-.46-4.81,14.79-13.27,28.9-3.17,5.29-13.12,21.99-31.82,29.83-22.31,9.35-46.97,2.51-55.68,0-7.8-2.24-14.78-5.75-15.91-3.98Z"/>
  </g>
  <g>
    <path class="cls-1" d="m244.94,102.47c0,39.54-32.05,71.59-71.59,71.59s-71.59-32.05-71.59-71.59c0-8.37,1.44-16.4,4.07-23.87,9.83-27.81,36.35-47.73,67.52-47.73,39.54.01,71.59,32.06,71.59,71.6Z"/>
    <path class="cls-6" d="m119.65,94.52c-.26,9.37-3.67,11.03-1.99,15.91,1.39,4.03,5.49,8.36,9.94,7.95,3.86-.35,7.12-4.19,7.95-7.95,1.29-5.79-3.93-7.85-3.98-15.91-.04-6.24,3.06-10.7,3.98-11.93,1.4-1.87,3.71-4.97,7.95-5.97,5.09-1.2,9.2,1.49,9.94,1.99,4.86,3.31,5.82,8.97,5.97,9.94.8,5.32-1.91,7.52,0,11.93.24.56,1.72,3.96,3.98,3.98,1.9.02,3.4-2.36,3.98-3.98.68-1.9.27-3.26,0-5.97,0,0-.38-3.86,0-7.95.48-5.13,4.16-12.7,9.94-13.92,6.73-1.42,13.4,6.36,15.91,11.93,4.05,9.01.38,18.9,0,19.89-.72,1.87-2.05,4.57-3.98,9.94-.9,2.51-1.57,4.6-1.99,5.97-.38.99-1.57,4.47,0,7.95,2.27,5.03,8.36,5.77,9.94,5.97,5.61.68,12.78-1.72,13.92-5.97.7-2.6-1.34-4.06-3.98-9.94-.27-.59-2.99-6.76-3.98-13.92-1.27-9.17.83-16.17,1.99-19.89,2.08-6.67,4.34-8.82,5.97-9.94.83-.57,2.96-1.99,5.97-1.99,4.66.01,7.56,3.49,7.95,3.98,1.3,1.61,1.77,3.22,1.99,3.98,3.45,12.14,3.03,18.62,5.97,19.89,3.08,1.32,9.33-3.31,9.94-7.95.14-1.04-.57-3.36-1.99-7.95-.89-2.87-1.33-4.3-1.99-5.97-.82-2.08-1.96-4.54-3.98-7.95-2.96-5-6.86-11.59-13.92-17.9-2-1.79-4-3.16-7.95-5.97-9.28-6.58-13.93-9.87-19.89-11.93-8.8-3.04-16.5-2.42-21.88-1.99-7.54.61-12.97,2.36-17.9,3.98-6.94,2.28-20.07,6.75-31.82,17.9-2.82,2.68-5.07,6.54-9.94,13.92-5.01,7.59-6.77,11.22-5.97,11.93,0,0,.76-.6,1.89-1.16.62-.3,2.23-1.02,4.07-.83,2.01.21,3.37,1.44,3.98,1.99,4.06,3.63,4.08,11.41,4.01,13.91Z"/>
  </g>
  <line class="cls-3" x1="98.14" y1="41.06" x2="100.12" y2="41.06"/>
  <path class="cls-7" d="m53.69,266.36s-.2,2.39-1.5,4.49c-1.37,2.23-4.4,4.67-13.48,5.99-10.91,1.59-17.02,2.48-22.46-1.5-5.62-4.11-7.16-10.94-8.02-14.74-.88-3.89-.78-7.77-.6-15.54,0,0,.06-2.51.6-6.87.18-1.44.26-2.01.36-2.56.36-1.89.74-3.78,1.95-5.68.26-.41,1.35-2.07,3.44-3.46,2.87-1.91,5.74-2.06,6.74-2.07,3.17-.03,5.42,1.18,5.99,1.5,2.25,1.27,3.47,2.95,3.75,3.35,1.09,1.56,1.69,3.32,2.08,7.85.3,3.44.49,6.39.17,10.56-.2,2.6-.61,5.83-.01,9.69.28,1.77.82,2.52,1.5,2.99,1.15.81,2.62.55,3.51.39,1.87-.33,2.06-1.05,4.58-1.96,1.91-.7,3.32-.84,3.86-.88,0,0,2.97-.23,4.48.93.01.01.03.02.03.03.12.09.88.69,1.5,1.5,1.75,2.24,1.6,5.14,1.53,5.99Z"/>
  <path class="cls-7" d="m99.31,267.81c-1.37,2.53-2.98,4.08-4.02,5.09-1.65,1.58-7.55,7.24-16.65,7.01-1.1-.03-9.36-.36-15.45-6.95-3.7-4-4.81-8.37-5.33-10.54-1.44-5.98-.31-10.78,0-11.98,1.27-4.94,3.78-8.12,4.49-8.98,3.37-4.09,7.26-5.84,8.48-6.35.93-.39,3.74-1.48,7.55-1.63,1.03-.04,4.41-.11,8.5,1.29,1.39.47,4.23,1.47,6.91,3.7,4.77,3.95,6.09,9.36,6.82,12.36.71,2.91,2.46,10.07-1.3,16.98Zm-18.14-12.31c-.95-.91-2.66-1.42-3.86-.57-1.24.89-1.11,2.67-.83,3.61.08.27.64,2.09,2.32,2.4,1.28.24,2.52-.51,3.09-1.55.75-1.33.25-2.97-.72-3.89Z"/>
  <path class="cls-7" d="m132.72,261.18c-.23-.21-.89-.84-1.72-.75-.7.07-1.16.61-1.27.75-1.12,1.31.03,3.58.67,7.75.49,3.19.75,5.01-.32,6.51-.64.89-1.54,1.33-3.34,2.21-.68.33-2.37,1.1-4.73,1.53-1.89.34-3.35.31-4.25.29-1.99-.05-3.13-.08-4.43-.67-.32-.15-1.7-.76-3-2.49-1.98-2.63-2.55-5.79-3.05-10.64-.6-5.81-.9-8.71-.73-12.37.28-5.82,1.36-10.19,1.8-11.85,1.8-6.74,3.11-11.65,7.21-13.48,1.97-.88,3.76-.67,6.61-.34,2.8.32,8.82,1.02,10.56,5.09.58,1.36,1.03,3.92,0,5.99-.48.97-1.17,1.57-1.5,2.99-.27,1.21-.15,2.27,0,2.99.52,1.09,1.15,1.39,1.5,1.5,1.54.46,3.53-1.29,4.49-2.99,1.43-2.54.08-3.94,1.5-7.49.48-1.19,1.01-2.55,2.35-3.64,1.41-1.14,2.89-1.33,5.13-1.61,3.15-.4,5.58,0,7.12.26,2.75.46,4.28.72,5.91,1.93.61.45,2.03,1.53,2.77,3.46.88,2.31.26,4.46.05,5.18-1.29,4.27-5.32,6.26-8.65,11.17-.22.32-.59.89-.81,1.72-.66,2.51.74,4.92,1.09,5.48.24.39.72.98,1.68,2.17.69.86.97,1.16,1.48,1.84.16.21.65.88,1.34,1.97,1.27,2.02,1.9,3.03,2.18,4.03.47,1.66.25,3.05.09,4.12-.16,1.05-.43,2.78-1.55,4.38-2.16,3.09-6.1,3.65-8.21,3.95-1.04.15-2.55.35-4.49,0-3.68-.66-6.09-2.79-7.13-3.86-1.85-1.91-2.65-3.89-3.26-5.41-1.07-2.65-1.48-5.3-1.55-5.75-.43-2.83-.22-4.68-1.54-5.92Z"/>
  <path class="cls-7" d="m217.18,274.94c-2.48.46-4.58.29-5.92.09-2.24-.34-3.99-.62-5.58-1.95-1.82-1.53-2.38-3.57-2.75-5.01-.64-2.47-.22-3.68.26-9.79.52-6.73.16-7.09,0-7.12-.49-.11-1.53,2.17-2.66,4.64-1.15,2.52-1.37,3.46-2.4,3.95-1.08.51-2.52.27-3.45-.41-.95-.7-.88-1.5-1.88-3.62-.33-.72-1.76-3.77-2.4-3.61-.69.18-.77,4.11.43,7.73.58,1.76,1.06,2.22,1.55,4.29.25,1.08.6,2.62.44,4.56-.09,1.07-.25,3.09-1.47,4.97-1.94,2.97-5.34,3.73-7.47,4.21-1.67.37-4.07.88-6.87-.09-.72-.25-2.57-.98-4.23-2.71-1.1-1.15-1.68-2.45-2.81-5.01-1.2-2.72-1.86-4.89-2.06-5.58-.42-1.44-1.1-3.74-1.46-6.77-.18-1.49-.18-3.8-.17-8.34,0-1.98.02-3.76.05-5.65.08-4.13.12-6.22.38-7.57.51-2.69.94-4.94,2.83-6.61,2.23-1.96,5.24-1.98,5.49-1.97.64,0,1.59.14,3.51.41.56.08,1.53.26,2.85.45,3.08.45,4.6.81,6,1.43,1.02.45,1.98.88,2.87,1.86.33.36.36.47,1.52,2.46,1.29,2.21,1.75,2.92,2.66,3.35.78.36,1.25.22,1.37.17.44-.16.69-.55,1.03-1.2.77-1.47,1.03-2.32,1.03-2.32.46-1.47.93-3,1.8-4.21.72-.99,1.51-1.46,3-2.4,1.57-1,2.88-1.47,4.29-1.97,1.58-.56,3.54-1.25,6.18-1.46,1.99-.16,3.23-.14,4.56.52,2.36,1.16,3.3,3.7,4.8,7.9.43,1.21.9,2.45,1.35,4.61,1.44,6.87,2.16,10.3,2.34,13.16.2,3.18.06,5.39-.17,9.01-.25,3.97-.68,6.95-1.89,10.13-.7,1.85-1.37,2.98-2.49,3.86-1.31,1.02-2.69,1.28-4.46,1.61Z"/>
  <path class="cls-7" d="m266.93,265.77c-.37-1.04-.66-1.85-1.42-2.42-.84-.62-1.79-.61-3.09-.6-.92.01-1.77.18-3.43.52-2.78.57-3.45.87-3.77,1.03-.91.45-1.77.88-2.24,1.8-.41.82-.27,1.51-.17,2.75.04.46.25,3.06-.17,4.46-.48,1.62-2.67,2.62-7.04,4.55-5.16,2.28-6.69,2.29-7.3,2.27-1.08-.04-3.37-.11-5.13-1.57-1.29-1.07-2.11-2.73-2.51-11.25-.23-5-.35-7.55-.05-11.4.5-6.26,1.71-10.82,2.02-11.95,1.23-4.48,2.21-8.06,5.06-11.93,1-1.36,2.65-3.56,5.58-5.41,2.56-1.62,4.92-2.22,6.61-2.66,1.72-.44,3.81-.96,6.61-.86,1.51.06,4.31.19,7.32,1.77,1.25.65,2.1,1.36,3.8,2.78,1.92,1.6,3.2,2.95,4.63,4.46,2.63,2.79,4.43,5.11,5.12,6.01.68.89,1.48,1.95,2.38,3.29.28.42.82,1.22,1.31,2.03.74,1.24,1.33,2.44,2.39,5.02,1.22,2.99,2.13,5.51,2.8,7.49.56,1.67,1.03,3.28,1.44,5.38.03.14.05.26.07.4.48,2.93.85,5.2-.46,6.87-.77.99-1.79,1.32-3.23,1.79-1.4.46-3.02.75-7.73.52-5.89-.29-7.24-.94-7.74-1.39-.09-.08-.16-.16-.16-.16-1.04-1.1-1.01-2.21-1.5-3.59Zm-9.49-19.93c-.39-.34-1.56-1.37-2.58-1.03-1.51.5-1.62,3.65-1.46,5.24.12,1.19.38,3.75,2.23,4.55.95.41,2.3.34,3.1-.43.8-.77.72-1.91.6-3.43-.11-1.39-.27-3.48-1.89-4.9Z"/>
  <path class="cls-7" d="m323.74,245.61c-1.57,1.16-.27,5.42.06,6.5,1.15,3.74,2.32,3.84,3.69,7.3.59,1.48,2.82,7.62.17,11.16-.62.83-1.64,1.69-1.97,1.97-1.87,1.58-3.61,2.34-3.95,2.49-3.97,1.71-7.65,1.07-8.76.84-2.55-.54-3.92-1.58-4.22-1.8-.79-.62-1.33-1.22-1.5-1.5-.77-1.25-1.23-2.32-1.5-2.99-1.67-4.12-1.72-7.95-1.5-10.48.14-1.54-.02-2.33,0-2.99.12-3.23.57-4.84-.38-5.61-.44-.36-.97-.37-1.11-.38-1.36-.04-1.67,1.48-3.44,2.26-.18.08-1.66.72-3.23.22-.74-.23-1.34-.67-2.44-1.93-1.9-2.2-2.96-4.22-3.09-4.46-1.04-1.95-2.08-3.89-2.32-6.61-.1-1.11-.27-3.11.6-5.15,1.07-2.52,3.13-3.69,7.21-5.92,4.81-2.63,8.82-3.74,10.3-4.12,3.83-.98,6.84-1.17,7.98-1.23,1.61-.08,2.89-.03,3.39-.01.45.02.92.05,1.51.11,1.11.1,3.21.29,5.05.7,2.8.61,5.15,1.13,6.78,3.09.85,1.03,1.21,2.1,1.55,3.09.23.69.49,1.65.69,4.81.17,2.64.25,3.96.09,5.67-.25,2.57-.4,4.14-1.55,4.89-.24.15-.67.38-3.51.23-3.44-.22-3.99-.61-4.6-.15Z"/>
  <path class="cls-5" d="m122.05,24.83c-3.61-3.73-8.96-8.46-16.28-12.65-8.1-4.65-15.63-6.92-20.99-8.09"/>
  <path class="cls-5" d="m124.28,27.24c1.31,1.36,2.68,2.92,4.04,4.67.78,1.01,1.49,2,2.15,2.96"/>
  <path class="cls-5" d="m223.23,55.62c-3.61-3.73-8.96-8.46-16.28-12.65-8.1-4.65-15.63-6.92-20.99-8.09"/>
  <path class="cls-5" d="m226.01,58.58c1.31,1.36,2.68,2.92,4.04,4.67.78,1.01,1.49,2,2.15,2.96"/>
  <path class="cls-5" d="m321.16,26.82c-3.61-3.73-8.96-8.46-16.28-12.65-8.1-4.65-15.63-6.92-20.99-8.09"/>
  <path class="cls-5" d="m325.07,31.06c1.31,1.36,2.68,2.92,4.04,4.67.78,1.01,1.49,2,2.15,2.96"/>
</svg>