<?xml version="1.0" encoding="utf-8"?>
<!-- Generator: Adobe Illustrator 27.5.0, SVG Export Plug-In . SVG Version: 6.00 Build 0)  -->
<svg version="1.1" id="Layer_1" xmlns="http://www.w3.org/2000/svg" xmlns:xlink="http://www.w3.org/1999/xlink" x="0px" y="0px"
	 viewBox="0 0 850.39 850.39" style="enable-background:new 0 0 850.39 850.39;" xml:space="preserve">
<style type="text/css">
	.st0{fill:#FBB040;stroke:#F5F2AA;stroke-width:5;stroke-miterlimit:10;}
	.st1{fill:#F5F2AA;stroke:#F5F2AA;stroke-width:5;stroke-miterlimit:10;}
	.st2{fill:#F49DC3;stroke:#F49DC3;stroke-width:5;stroke-miterlimit:10;}
	.st3{fill:#FBB040;stroke:#864721;stroke-width:5;stroke-miterlimit:10;}
	.st4{fill:#864721;stroke:#864721;stroke-width:5;stroke-miterlimit:10;}
	.st5{fill:none;stroke:#F5F2AA;stroke-width:6;stroke-miterlimit:10;}
	.st6{fill:#864721;stroke:#864721;stroke-miterlimit:10;}
	.st7{fill:none;stroke:#FFFFFF;stroke-miterlimit:10;}
</style>
<g>
	
		<ellipse transform="matrix(0.901 -0.4337 0.4337 0.901 -127.5696 177.8478)" class="st0" cx="325.98" cy="368.5" rx="71.59" ry="71.59"/>
	<path class="st1" d="M256.38,362.54c2.61,2.37,6.57,5.44,11.93,7.95c5.02,2.35,11.94,5.34,19.89,3.98
		c2.44-0.42,6.99-1.63,11.93-5.97c10.12-8.88,17.89-9.62,23.86-9.94c6.02-0.32,11.57,1.3,13.92,1.99c3.54,1.03,5.19,1.96,9.94,3.98
		c8.21,3.49,12.39,5.71,15.91,5.97c12.88,0.94,28.36-6.38,29.83-15.91c0.44-2.84-1.7-7.2-5.97-15.91
		c-3.24-6.62-4.86-9.93-7.95-13.92c-5.47-7.07-11.43-11-15.91-13.92c-3.72-2.42-9.04-5.43-15.91-7.95
		c-3.09-0.53-7.4-1.16-12.57-1.61c-6.69-0.57-12.88-1.27-19.24-0.38c-12.42,1.74-21.03,6.95-25.85,9.94
		c-11.41,7.08-17.98,15.39-19.89,17.9C260.33,341.87,257.39,355.35,256.38,362.54z"/>
</g>
<g>
	
		<ellipse transform="matrix(0.792 -0.6105 0.6105 0.792 -115.9038 396.7777)" class="st2" cx="524.41" cy="368.5" rx="71.59" ry="71.59"/>
	<path class="st2" d="M475.87,416.5c-1.3,2.04,5.88,9.75,13.3,14.33c4.52,2.79,9.1,4.4,11.72,5.31c2.2,0.76,5.77,1.96,10.65,2.8
		c16.11,2.76,25.99,0.12,34.22,6.01c0.41,0.3,1.02,0.7,1.71,1.38c4.39,4.35,5.26,10.77,5.97,15.91c0.19,1.36,0.75,5.97,0,11.93
		c-1.04,8.27-3.51,10.31-1.99,13.92c1.46,3.47,5.63,6.08,9.94,5.97c0.32-0.01,6.2-0.24,7.95-3.98c1.81-3.87-2.78-7.3-5.97-17.9
		c-0.72-2.4-1.67-5.64-1.99-9.94c-0.24-3.29-0.52-10.32,3.98-21.88c4.49-11.52,7.55-11.86,15.91-27.84
		c3.18-6.09,5.69-10.88,7.95-17.9c3.42-10.58,3.77-18.31,3.98-23.86c0.18-4.85,0.33-8.78-0.65-9.01
		c-1.97-0.46-4.81,14.79-13.27,28.9c-3.17,5.29-13.12,21.99-31.82,29.83c-22.31,9.35-46.97,2.51-55.68,0
		C483.98,418.24,477,414.73,475.87,416.5z"/>
</g>
<g>
	<path class="st3" d="M496.79,396.85c0,39.54-32.05,71.59-71.59,71.59c-39.54,0-71.59-32.05-71.59-71.59
		c0-8.37,1.44-16.4,4.07-23.87c9.83-27.81,36.35-47.73,67.52-47.73C464.74,325.26,496.79,357.31,496.79,396.85z"/>
	<path class="st4" d="M371.5,388.9c-0.26,9.37-3.67,11.03-1.99,15.91c1.39,4.03,5.49,8.36,9.94,7.95c3.86-0.35,7.12-4.19,7.95-7.95
		c1.29-5.79-3.93-7.85-3.98-15.91c-0.04-6.24,3.06-10.7,3.98-11.93c1.4-1.87,3.71-4.97,7.95-5.97c5.09-1.2,9.2,1.49,9.94,1.99
		c4.86,3.31,5.82,8.97,5.97,9.94c0.8,5.32-1.91,7.52,0,11.93c0.24,0.56,1.72,3.96,3.98,3.98c1.9,0.02,3.4-2.36,3.98-3.98
		c0.68-1.9,0.27-3.26,0-5.97c0,0-0.38-3.86,0-7.95c0.48-5.13,4.16-12.7,9.94-13.92c6.73-1.42,13.4,6.36,15.91,11.93
		c4.05,9.01,0.38,18.9,0,19.89c-0.72,1.87-2.05,4.57-3.98,9.94c-0.9,2.51-1.57,4.6-1.99,5.97c-0.38,0.99-1.57,4.47,0,7.95
		c2.27,5.03,8.36,5.77,9.94,5.97c5.61,0.68,12.78-1.72,13.92-5.97c0.7-2.6-1.34-4.06-3.98-9.94c-0.27-0.59-2.99-6.76-3.98-13.92
		c-1.27-9.17,0.83-16.17,1.99-19.89c2.08-6.67,4.34-8.82,5.97-9.94c0.83-0.57,2.96-1.99,5.97-1.99c4.66,0.01,7.56,3.49,7.95,3.98
		c1.3,1.61,1.77,3.22,1.99,3.98c3.45,12.14,3.03,18.62,5.97,19.89c3.08,1.32,9.33-3.31,9.94-7.95c0.14-1.04-0.57-3.36-1.99-7.95
		c-0.89-2.87-1.33-4.3-1.99-5.97c-0.82-2.08-1.96-4.54-3.98-7.95c-2.96-5-6.86-11.59-13.92-17.9c-2-1.79-4-3.16-7.95-5.97
		c-9.28-6.58-13.93-9.87-19.89-11.93c-8.8-3.04-16.5-2.42-21.88-1.99c-7.54,0.61-12.97,2.36-17.9,3.98
		c-6.94,2.28-20.07,6.75-31.82,17.9c-2.82,2.68-5.07,6.54-9.94,13.92c-5.01,7.59-6.77,11.22-5.97,11.93c0,0,0.76-0.6,1.89-1.16
		c0.62-0.3,2.23-1.02,4.07-0.83c2.01,0.21,3.37,1.44,3.98,1.99C371.55,378.62,371.57,386.4,371.5,388.9z"/>
</g>
<line class="st5" x1="349.99" y1="335.44" x2="351.97" y2="335.44"/>
<path class="st6" d="M305.54,560.74c0,0-0.2,2.39-1.5,4.49c-1.37,2.23-4.4,4.67-13.48,5.99c-10.91,1.59-17.02,2.48-22.46-1.5
	c-5.62-4.11-7.16-10.94-8.02-14.74c-0.88-3.89-0.78-7.77-0.6-15.54c0,0,0.06-2.51,0.6-6.87c0.18-1.44,0.26-2.01,0.36-2.56
	c0.36-1.89,0.74-3.78,1.95-5.68c0.26-0.41,1.35-2.07,3.44-3.46c2.87-1.91,5.74-2.06,6.74-2.07c3.17-0.03,5.42,1.18,5.99,1.5
	c2.25,1.27,3.47,2.95,3.75,3.35c1.09,1.56,1.69,3.32,2.08,7.85c0.3,3.44,0.49,6.39,0.17,10.56c-0.2,2.6-0.61,5.83-0.01,9.69
	c0.28,1.77,0.82,2.52,1.5,2.99c1.15,0.81,2.62,0.55,3.51,0.39c1.87-0.33,2.06-1.05,4.58-1.96c1.91-0.7,3.32-0.84,3.86-0.88
	c0,0,2.97-0.23,4.48,0.93c0.01,0.01,0.03,0.02,0.03,0.03c0.12,0.09,0.88,0.69,1.5,1.5C305.76,556.99,305.61,559.89,305.54,560.74z"
	/>
<path class="st6" d="M351.16,562.19c-1.37,2.53-2.98,4.08-4.02,5.09c-1.65,1.58-7.55,7.24-16.65,7.01
	c-1.1-0.03-9.36-0.36-15.45-6.95c-3.7-4-4.81-8.37-5.33-10.54c-1.44-5.98-0.31-10.78,0-11.98c1.27-4.94,3.78-8.12,4.49-8.98
	c3.37-4.09,7.26-5.84,8.48-6.35c0.93-0.39,3.74-1.48,7.55-1.63c1.03-0.04,4.41-0.11,8.5,1.29c1.39,0.47,4.23,1.47,6.91,3.7
	c4.77,3.95,6.09,9.36,6.82,12.36C353.17,548.12,354.92,555.28,351.16,562.19z M333.02,549.88c-0.95-0.91-2.66-1.42-3.86-0.57
	c-1.24,0.89-1.11,2.67-0.83,3.61c0.08,0.27,0.64,2.09,2.32,2.4c1.28,0.24,2.52-0.51,3.09-1.55
	C334.49,552.44,333.99,550.8,333.02,549.88z"/>
<path class="st6" d="M384.57,555.56c-0.23-0.21-0.89-0.84-1.72-0.75c-0.7,0.07-1.16,0.61-1.27,0.75c-1.12,1.31,0.03,3.58,0.67,7.75
	c0.49,3.19,0.75,5.01-0.32,6.51c-0.64,0.89-1.54,1.33-3.34,2.21c-0.68,0.33-2.37,1.1-4.73,1.53c-1.89,0.34-3.35,0.31-4.25,0.29
	c-1.99-0.05-3.13-0.08-4.43-0.67c-0.32-0.15-1.7-0.76-3-2.49c-1.98-2.63-2.55-5.79-3.05-10.64c-0.6-5.81-0.9-8.71-0.73-12.37
	c0.28-5.82,1.36-10.19,1.8-11.85c1.8-6.74,3.11-11.65,7.21-13.48c1.97-0.88,3.76-0.67,6.61-0.34c2.8,0.32,8.82,1.02,10.56,5.09
	c0.58,1.36,1.03,3.92,0,5.99c-0.48,0.97-1.17,1.57-1.5,2.99c-0.27,1.21-0.15,2.27,0,2.99c0.52,1.09,1.15,1.39,1.5,1.5
	c1.54,0.46,3.53-1.29,4.49-2.99c1.43-2.54,0.08-3.94,1.5-7.49c0.48-1.19,1.01-2.55,2.35-3.64c1.41-1.14,2.89-1.33,5.13-1.61
	c3.15-0.4,5.58,0,7.12,0.26c2.75,0.46,4.28,0.72,5.91,1.93c0.61,0.45,2.03,1.53,2.77,3.46c0.88,2.31,0.26,4.46,0.05,5.18
	c-1.29,4.27-5.32,6.26-8.65,11.17c-0.22,0.32-0.59,0.89-0.81,1.72c-0.66,2.51,0.74,4.92,1.09,5.48c0.24,0.39,0.72,0.98,1.68,2.17
	c0.69,0.86,0.97,1.16,1.48,1.84c0.16,0.21,0.65,0.88,1.34,1.97c1.27,2.02,1.9,3.03,2.18,4.03c0.47,1.66,0.25,3.05,0.09,4.12
	c-0.16,1.05-0.43,2.78-1.55,4.38c-2.16,3.09-6.1,3.65-8.21,3.95c-1.04,0.15-2.55,0.35-4.49,0c-3.68-0.66-6.09-2.79-7.13-3.86
	c-1.85-1.91-2.65-3.89-3.26-5.41c-1.07-2.65-1.48-5.3-1.55-5.75C385.68,558.65,385.89,556.8,384.57,555.56z"/>
<path class="st6" d="M469.03,569.32c-2.48,0.46-4.58,0.29-5.92,0.09c-2.24-0.34-3.99-0.62-5.58-1.95c-1.82-1.53-2.38-3.57-2.75-5.01
	c-0.64-2.47-0.22-3.68,0.26-9.79c0.52-6.73,0.16-7.09,0-7.12c-0.49-0.11-1.53,2.17-2.66,4.64c-1.15,2.52-1.37,3.46-2.4,3.95
	c-1.08,0.51-2.52,0.27-3.45-0.41c-0.95-0.7-0.88-1.5-1.88-3.62c-0.33-0.72-1.76-3.77-2.4-3.61c-0.69,0.18-0.77,4.11,0.43,7.73
	c0.58,1.76,1.06,2.22,1.55,4.29c0.25,1.08,0.6,2.62,0.44,4.56c-0.09,1.07-0.25,3.09-1.47,4.97c-1.94,2.97-5.34,3.73-7.47,4.21
	c-1.67,0.37-4.07,0.88-6.87-0.09c-0.72-0.25-2.57-0.98-4.23-2.71c-1.1-1.15-1.68-2.45-2.81-5.01c-1.2-2.72-1.86-4.89-2.06-5.58
	c-0.42-1.44-1.1-3.74-1.46-6.77c-0.18-1.49-0.18-3.8-0.17-8.34c0-1.98,0.02-3.76,0.05-5.65c0.08-4.13,0.12-6.22,0.38-7.57
	c0.51-2.69,0.94-4.94,2.83-6.61c2.23-1.96,5.24-1.98,5.49-1.97c0.64,0,1.59,0.14,3.51,0.41c0.56,0.08,1.53,0.26,2.85,0.45
	c3.08,0.45,4.6,0.81,6,1.43c1.02,0.45,1.98,0.88,2.87,1.86c0.33,0.36,0.36,0.47,1.52,2.46c1.29,2.21,1.75,2.92,2.66,3.35
	c0.78,0.36,1.25,0.22,1.37,0.17c0.44-0.16,0.69-0.55,1.03-1.2c0.77-1.47,1.03-2.32,1.03-2.32c0.46-1.47,0.93-3,1.8-4.21
	c0.72-0.99,1.51-1.46,3-2.4c1.57-1,2.88-1.47,4.29-1.97c1.58-0.56,3.54-1.25,6.18-1.46c1.99-0.16,3.23-0.14,4.56,0.52
	c2.36,1.16,3.3,3.7,4.8,7.9c0.43,1.21,0.9,2.45,1.35,4.61c1.44,6.87,2.16,10.3,2.34,13.16c0.2,3.18,0.06,5.39-0.17,9.01
	c-0.25,3.97-0.68,6.95-1.89,10.13c-0.7,1.85-1.37,2.98-2.49,3.86C472.18,568.73,470.8,568.99,469.03,569.32z"/>
<path class="st6" d="M518.78,560.15c-0.37-1.04-0.66-1.85-1.42-2.42c-0.84-0.62-1.79-0.61-3.09-0.6c-0.92,0.01-1.77,0.18-3.43,0.52
	c-2.78,0.57-3.45,0.87-3.77,1.03c-0.91,0.45-1.77,0.88-2.24,1.8c-0.41,0.82-0.27,1.51-0.17,2.75c0.04,0.46,0.25,3.06-0.17,4.46
	c-0.48,1.62-2.67,2.62-7.04,4.55c-5.16,2.28-6.69,2.29-7.3,2.27c-1.08-0.04-3.37-0.11-5.13-1.57c-1.29-1.07-2.11-2.73-2.51-11.25
	c-0.23-5-0.35-7.55-0.05-11.4c0.5-6.26,1.71-10.82,2.02-11.95c1.23-4.48,2.21-8.06,5.06-11.93c1-1.36,2.65-3.56,5.58-5.41
	c2.56-1.62,4.92-2.22,6.61-2.66c1.72-0.44,3.81-0.96,6.61-0.86c1.51,0.06,4.31,0.19,7.32,1.77c1.25,0.65,2.1,1.36,3.8,2.78
	c1.92,1.6,3.2,2.95,4.63,4.46c2.63,2.79,4.43,5.11,5.12,6.01c0.68,0.89,1.48,1.95,2.38,3.29c0.28,0.42,0.82,1.22,1.31,2.03
	c0.74,1.24,1.33,2.44,2.39,5.02c1.22,2.99,2.13,5.51,2.8,7.49c0.56,1.67,1.03,3.28,1.44,5.38c0.03,0.14,0.05,0.26,0.07,0.4
	c0.48,2.93,0.85,5.2-0.46,6.87c-0.77,0.99-1.79,1.32-3.23,1.79c-1.4,0.46-3.02,0.75-7.73,0.52c-5.89-0.29-7.24-0.94-7.74-1.39
	c-0.09-0.08-0.16-0.16-0.16-0.16C519.24,562.64,519.27,561.53,518.78,560.15z M509.29,540.22c-0.39-0.34-1.56-1.37-2.58-1.03
	c-1.51,0.5-1.62,3.65-1.46,5.24c0.12,1.19,0.38,3.75,2.23,4.55c0.95,0.41,2.3,0.34,3.1-0.43c0.8-0.77,0.72-1.91,0.6-3.43
	C511.07,543.73,510.91,541.64,509.29,540.22z"/>
<path class="st6" d="M575.59,539.99c-1.57,1.16-0.27,5.42,0.06,6.5c1.15,3.74,2.32,3.84,3.69,7.3c0.59,1.48,2.82,7.62,0.17,11.16
	c-0.62,0.83-1.64,1.69-1.97,1.97c-1.87,1.58-3.61,2.34-3.95,2.49c-3.97,1.71-7.65,1.07-8.76,0.84c-2.55-0.54-3.92-1.58-4.22-1.8
	c-0.79-0.62-1.33-1.22-1.5-1.5c-0.77-1.25-1.23-2.32-1.5-2.99c-1.67-4.12-1.72-7.95-1.5-10.48c0.14-1.54-0.02-2.33,0-2.99
	c0.12-3.23,0.57-4.84-0.38-5.61c-0.44-0.36-0.97-0.37-1.11-0.38c-1.36-0.04-1.67,1.48-3.44,2.26c-0.18,0.08-1.66,0.72-3.23,0.22
	c-0.74-0.23-1.34-0.67-2.44-1.93c-1.9-2.2-2.96-4.22-3.09-4.46c-1.04-1.95-2.08-3.89-2.32-6.61c-0.1-1.11-0.27-3.11,0.6-5.15
	c1.07-2.52,3.13-3.69,7.21-5.92c4.81-2.63,8.82-3.74,10.3-4.12c3.83-0.98,6.84-1.17,7.98-1.23c1.61-0.08,2.89-0.03,3.39-0.01
	c0.45,0.02,0.92,0.05,1.51,0.11c1.11,0.1,3.21,0.29,5.05,0.7c2.8,0.61,5.15,1.13,6.78,3.09c0.85,1.03,1.21,2.1,1.55,3.09
	c0.23,0.69,0.49,1.65,0.69,4.81c0.17,2.64,0.25,3.96,0.09,5.67c-0.25,2.57-0.4,4.14-1.55,4.89c-0.24,0.15-0.67,0.38-3.51,0.23
	C576.75,539.92,576.2,539.53,575.59,539.99z"/>
<path class="st7" d="M373.9,319.21c-3.61-3.73-8.96-8.46-16.28-12.65c-8.1-4.65-15.63-6.92-20.99-8.09"/>
<path class="st7" d="M376.13,321.62c1.31,1.36,2.68,2.92,4.04,4.67c0.78,1.01,1.49,2,2.15,2.96"/>
<path class="st7" d="M475.08,350c-3.61-3.73-8.96-8.46-16.28-12.65c-8.1-4.65-15.63-6.92-20.99-8.09"/>
<path class="st7" d="M477.86,352.96c1.31,1.36,2.68,2.92,4.04,4.67c0.78,1.01,1.49,2,2.15,2.96"/>
<path class="st7" d="M573.01,321.2c-3.61-3.73-8.96-8.46-16.28-12.65c-8.1-4.65-15.63-6.92-20.99-8.09"/>
<path class="st7" d="M576.92,325.44c1.31,1.36,2.68,2.92,4.04,4.67c0.78,1.01,1.49,2,2.15,2.96"/>
</svg>
